{
	"asset":{
		"generator":"Khronos glTF Blender I/O v4.3.47",
		"version":"2.0"
	},
	"scene":0,
	"scenes":[
		{
			"name":"Scene",
			"nodes":[
				0,
				1,
				2,
				3
			]
		}
	],
	"nodes":[
		{
			"mesh":0,
			"name":"Base"
		},
		{
			"mesh":1,
			"name":"Drawer1",
			"translation":[
				0.03000001236796379,
				0.6450000405311584,
				0
			]
		},
		{
			"mesh":2,
			"name":"Drawer2",
			"translation":[
				0.03000001236796379,
				0.42500004172325134,
				0
			]
		},
		{
			"mesh":3,
			"name":"Drawer3",
			"translation":[
				0.03000001236796379,
				0.20500004291534424,
				0
			]
		}
	],
	"meshes":[
		{
			"name":"Plane",
			"primitives":[
				{
					"attributes":{
						"POSITION":0,
						"NORMAL":1,
						"TEXCOORD_0":2
					},
					"indices":3
				}
			]
		},
		{
			"name":"Plane.002",
			"primitives":[
				{
					"attributes":{
						"POSITION":4,
						"NORMAL":5,
						"TEXCOORD_0":6
					},
					"indices":7
				}
			]
		},
		{
			"name":"Plane.005",
			"primitives":[
				{
					"attributes":{
						"POSITION":8,
						"NORMAL":9,
						"TEXCOORD_0":10
					},
					"indices":7
				}
			]
		},
		{
			"name":"Plane.006",
			"primitives":[
				{
					"attributes":{
						"POSITION":11,
						"NORMAL":12,
						"TEXCOORD_0":13
					},
					"indices":7
				}
			]
		}
	],
	"accessors":[
		{
			"bufferView":0,
			"componentType":5126,
			"count":112,
			"max":[
				0.23999997973442078,
				0.800000011920929,
				0.40000009536743164
			],
			"min":[
				-0.2500000298023224,
				-3.725290298461914e-09,
				-0.3999999165534973
			],
			"type":"VEC3"
		},
		{
			"bufferView":1,
			"componentType":5126,
			"count":112,
			"type":"VEC3"
		},
		{
			"bufferView":2,
			"componentType":5126,
			"count":112,
			"type":"VEC2"
		},
		{
			"bufferView":3,
			"componentType":5123,
			"count":228,
			"type":"SCALAR"
		},
		{
			"bufferView":4,
			"componentType":5126,
			"count":132,
			"max":[
				0.26499995589256287,
				0.10499997437000275,
				0.3500000238418579
			],
			"min":[
				-0.22499999403953552,
				-0.10499997437000275,
				-0.3500000238418579
			],
			"type":"VEC3"
		},
		{
			"bufferView":5,
			"componentType":5126,
			"count":132,
			"type":"VEC3"
		},
		{
			"bufferView":6,
			"componentType":5126,
			"count":132,
			"type":"VEC2"
		},
		{
			"bufferView":7,
			"componentType":5123,
			"count":252,
			"type":"SCALAR"
		},
		{
			"bufferView":8,
			"componentType":5126,
			"count":132,
			"max":[
				0.26499995589256287,
				0.10499997437000275,
				0.3500000238418579
			],
			"min":[
				-0.22499999403953552,
				-0.10499997437000275,
				-0.3500000238418579
			],
			"type":"VEC3"
		},
		{
			"bufferView":9,
			"componentType":5126,
			"count":132,
			"type":"VEC3"
		},
		{
			"bufferView":10,
			"componentType":5126,
			"count":132,
			"type":"VEC2"
		},
		{
			"bufferView":11,
			"componentType":5126,
			"count":132,
			"max":[
				0.26499995589256287,
				0.10499997437000275,
				0.3500000238418579
			],
			"min":[
				-0.22499999403953552,
				-0.10499997437000275,
				-0.3500000238418579
			],
			"type":"VEC3"
		},
		{
			"bufferView":12,
			"componentType":5126,
			"count":132,
			"type":"VEC3"
		},
		{
			"bufferView":13,
			"componentType":5126,
			"count":132,
			"type":"VEC2"
		}
	],
	"bufferViews":[
		{
			"buffer":0,
			"byteLength":1344,
			"byteOffset":0,
			"target":34962
		},
		{
			"buffer":0,
			"byteLength":1344,
			"byteOffset":1344,
			"target":34962
		},
		{
			"buffer":0,
			"byteLength":896,
			"byteOffset":2688,
			"target":34962
		},
		{
			"buffer":0,
			"byteLength":456,
			"byteOffset":3584,
			"target":34963
		},
		{
			"buffer":0,
			"byteLength":1584,
			"byteOffset":4040,
			"target":34962
		},
		{
			"buffer":0,
			"byteLength":1584,
			"byteOffset":5624,
			"target":34962
		},
		{
			"buffer":0,
			"byteLength":1056,
			"byteOffset":7208,
			"target":34962
		},
		{
			"buffer":0,
			"byteLength":504,
			"byteOffset":8264,
			"target":34963
		},
		{
			"buffer":0,
			"byteLength":1584,
			"byteOffset":8768,
			"target":34962
		},
		{
			"buffer":0,
			"byteLength":1584,
			"byteOffset":10352,
			"target":34962
		},
		{
			"buffer":0,
			"byteLength":1056,
			"byteOffset":11936,
			"target":34962
		},
		{
			"buffer":0,
			"byteLength":1584,
			"byteOffset":12992,
			"target":34962
		},
		{
			"buffer":0,
			"byteLength":1584,
			"byteOffset":14576,
			"target":34962
		},
		{
			"buffer":0,
			"byteLength":1056,
			"byteOffset":16160,
			"target":34962
		}
	],
	"buffers":[
		{
			"byteLength":17216,
			"uri":"cupboard.bin"
		}
	]
}
