{
	"asset":{
		"generator":"Khronos glTF Blender I/O v4.3.47",
		"version":"2.0"
	},
	"scene":0,
	"scenes":[
		{
			"name":"Scene",
			"nodes":[
				0
			]
		}
	],
	"nodes":[
		{
			"mesh":0,
			"name":"cupboard"
		}
	],
	"materials":[
		{
			"doubleSided":true,
			"name":"Material",
			"pbrMetallicRoughness":{
				"baseColorFactor":[
					0.6444758772850037,
					0.4564114212989807,
					0.2622508406639099,
					1
				],
				"metallicFactor":0,
				"roughnessFactor":0.5
			}
		}
	],
	"meshes":[
		{
			"name":"Cube",
			"primitives":[
				{
					"attributes":{
						"POSITION":0,
						"NORMAL":1,
						"TEXCOORD_0":2
					},
					"indices":3,
					"material":0
				}
			]
		}
	],
	"accessors":[
		{
			"bufferView":0,
			"componentType":5126,
			"count":1211,
			"max":[
				0.3099253177642822,
				0.7499998807907104,
				0.4000000059604645
			],
			"min":[
				-0.2513236999511719,
				0,
				-0.4000000059604645
			],
			"type":"VEC3"
		},
		{
			"bufferView":1,
			"componentType":5126,
			"count":1211,
			"type":"VEC3"
		},
		{
			"bufferView":2,
			"componentType":5126,
			"count":1211,
			"type":"VEC2"
		},
		{
			"bufferView":3,
			"componentType":5123,
			"count":1920,
			"type":"SCALAR"
		}
	],
	"bufferViews":[
		{
			"buffer":0,
			"byteLength":14532,
			"byteOffset":0,
			"target":34962
		},
		{
			"buffer":0,
			"byteLength":14532,
			"byteOffset":14532,
			"target":34962
		},
		{
			"buffer":0,
			"byteLength":9688,
			"byteOffset":29064,
			"target":34962
		},
		{
			"buffer":0,
			"byteLength":3840,
			"byteOffset":38752,
			"target":34963
		}
	],
	"buffers":[
		{
			"byteLength":42592,
			"uri":"cupboard_small.bin"
		}
	]
}
