{
	"asset":{
		"generator":"Khronos glTF Blender I/O v4.3.47",
		"version":"2.0"
	},
	"scene":0,
	"scenes":[
		{
			"name":"Scene",
			"nodes":[
				0,
				1,
				2
			]
		}
	],
	"nodes":[
		{
			"mesh":0,
			"name":"Base"
		},
		{
			"mesh":1,
			"name":"Door"
		},
		{
			"mesh":2,
			"name":"Handle",
			"translation":[
				0,
				1.000000238418579,
				0.26999998092651367
			]
		}
	],
	"meshes":[
		{
			"name":"Plane",
			"primitives":[
				{
					"attributes":{
						"POSITION":0,
						"NORMAL":1,
						"TEXCOORD_0":2
					},
					"indices":3
				}
			]
		},
		{
			"name":"Plane.001",
			"primitives":[
				{
					"attributes":{
						"POSITION":4,
						"NORMAL":5,
						"TEXCOORD_0":6
					},
					"indices":7
				}
			]
		},
		{
			"name":"Cylinder",
			"primitives":[
				{
					"attributes":{
						"POSITION":8,
						"NORMAL":9,
						"TEXCOORD_0":10
					},
					"indices":11
				}
			]
		}
	],
	"accessors":[
		{
			"bufferView":0,
			"componentType":5126,
			"count":96,
			"max":[
				0.2500000596046448,
				1.999999761581421,
				0.5
			],
			"min":[
				-0.2500000596046448,
				5.960464477539063e-08,
				-0.5
			],
			"type":"VEC3"
		},
		{
			"bufferView":1,
			"componentType":5126,
			"count":96,
			"type":"VEC3"
		},
		{
			"bufferView":2,
			"componentType":5126,
			"count":96,
			"type":"VEC2"
		},
		{
			"bufferView":3,
			"componentType":5123,
			"count":180,
			"type":"SCALAR"
		},
		{
			"bufferView":4,
			"componentType":5126,
			"count":24,
			"max":[
				0.050000011920928955,
				1.9149999618530273,
				0.41499996185302734
			],
			"min":[
				-0.050000011920928955,
				5.960464477539063e-08,
				-0.41499999165534973
			],
			"type":"VEC3"
		},
		{
			"bufferView":5,
			"componentType":5126,
			"count":24,
			"type":"VEC3"
		},
		{
			"bufferView":6,
			"componentType":5126,
			"count":24,
			"type":"VEC2"
		},
		{
			"bufferView":7,
			"componentType":5123,
			"count":36,
			"type":"SCALAR"
		},
		{
			"bufferView":8,
			"componentType":5126,
			"count":220,
			"max":[
				0.13499996066093445,
				0.030000001192092896,
				0.03000001609325409
			],
			"min":[
				-0.13500003516674042,
				-0.030000001192092896,
				-0.030000006780028343
			],
			"type":"VEC3"
		},
		{
			"bufferView":9,
			"componentType":5126,
			"count":220,
			"type":"VEC3"
		},
		{
			"bufferView":10,
			"componentType":5126,
			"count":220,
			"type":"VEC2"
		},
		{
			"bufferView":11,
			"componentType":5123,
			"count":420,
			"type":"SCALAR"
		}
	],
	"bufferViews":[
		{
			"buffer":0,
			"byteLength":1152,
			"byteOffset":0,
			"target":34962
		},
		{
			"buffer":0,
			"byteLength":1152,
			"byteOffset":1152,
			"target":34962
		},
		{
			"buffer":0,
			"byteLength":768,
			"byteOffset":2304,
			"target":34962
		},
		{
			"buffer":0,
			"byteLength":360,
			"byteOffset":3072,
			"target":34963
		},
		{
			"buffer":0,
			"byteLength":288,
			"byteOffset":3432,
			"target":34962
		},
		{
			"buffer":0,
			"byteLength":288,
			"byteOffset":3720,
			"target":34962
		},
		{
			"buffer":0,
			"byteLength":192,
			"byteOffset":4008,
			"target":34962
		},
		{
			"buffer":0,
			"byteLength":72,
			"byteOffset":4200,
			"target":34963
		},
		{
			"buffer":0,
			"byteLength":2640,
			"byteOffset":4272,
			"target":34962
		},
		{
			"buffer":0,
			"byteLength":2640,
			"byteOffset":6912,
			"target":34962
		},
		{
			"buffer":0,
			"byteLength":1760,
			"byteOffset":9552,
			"target":34962
		},
		{
			"buffer":0,
			"byteLength":840,
			"byteOffset":11312,
			"target":34963
		}
	],
	"buffers":[
		{
			"byteLength":12152,
			"uri":"door.bin"
		}
	]
}
